<svg width="265" height="155" viewBox="0 0 265 155" fill="none" xmlns="http://www.w3.org/2000/svg">
<path d="M193.726 33.7179C202.946 6.44001 221.926 4.70344 234.789 7.5926C235.818 7.80006 237.555 8.51467 236.84 11.1733L231.838 27.7936C231.423 29.8452 230.002 30.0296 228.872 29.7377C220.796 28.0011 216.923 30.8672 214.664 38.8354L221.718 40.0725C223.762 40.4951 224.162 41.3096 223.762 43.3382L220.189 55.9091C219.767 57.9607 217.738 58.4602 215.686 57.9607L211.399 57.3537C209.355 56.8542 208.241 58.6676 208.033 59.6973C207.826 60.7269 206.496 63.8773 205.482 67.9805C204.468 72.0838 196.377 93.5911 169.306 91.1168C165.019 90.7019 163.997 89.3803 164.496 87.4362L169.813 70.6776C170.42 67.7116 171.865 67.2045 172.971 67.5195C178.496 68.7566 183.283 66.2901 185.266 60.0738L193.726 33.7179Z" fill="#FDB724"/>
<path d="M126.5 25.2502C126.847 25.9485 127.053 26.7083 127.107 27.4862C127.098 27.8975 127.002 28.3021 126.824 28.6732C126.647 29.0442 126.392 29.373 126.077 29.6377C125.147 30.3448 124.109 30.8975 123.003 31.2744C110.709 36.0845 95.4104 41.4786 91.3302 42.9232C93.1004 45.5251 95.7405 47.4105 98.776 48.2405C100.206 48.6449 101.685 48.8492 103.171 48.8475C105.161 48.8164 107.131 48.434 108.988 47.718C113.886 45.7925 118.389 42.985 122.273 39.4347C122.728 39.0122 123.247 38.6647 123.81 38.4051C124.137 38.2782 124.482 38.208 124.832 38.1976C125.325 38.2205 125.805 38.3616 126.231 38.609C126.658 38.8565 127.019 39.2029 127.283 39.6191C129.934 43.5149 131.671 46.0659 132.385 47.1724C132.577 47.4655 132.744 47.7739 132.885 48.0945C133.008 48.4223 133.08 48.7669 133.1 49.1164C133.069 49.7551 132.897 50.3789 132.597 50.9435C132.297 51.508 131.876 51.9992 131.363 52.3821C126.254 57.2768 119.523 61.2724 111.447 64.223C107.218 65.795 102.769 66.6921 98.2611 66.8817C93.9346 66.9617 89.6433 66.0908 85.6903 64.3306C78.0063 60.8575 72.4047 54.3031 68.9316 44.8058C67.4653 40.8406 66.6405 36.6671 66.4881 32.4423C66.3977 27.9228 67.3799 23.4462 69.3542 19.3797C73.0348 11.6189 79.4586 6.09417 88.6639 2.72093C91.7628 1.53434 95.0505 0.917403 98.3687 0.899841C102.447 0.904325 106.47 1.84823 110.125 3.65837C116.864 7.03161 122.074 13.8703 125.754 23.9977L126.5 25.2502ZM105.346 23.6135C104.539 21.1935 102.907 19.1344 100.735 17.7968C99.3609 16.9156 97.7575 16.4586 96.125 16.4828C95.0449 16.4986 93.9759 16.7041 92.9669 17.0899C91.6728 17.5439 90.4924 18.2729 89.5069 19.2266C88.5214 20.1803 87.7541 21.3361 87.2578 22.6146C86.5571 24.185 86.2083 25.8897 86.2358 27.6091C86.2406 28.5725 86.3436 29.5328 86.5432 30.4753C86.5614 30.59 86.6103 30.6977 86.6847 30.7869C86.7591 30.8762 86.8562 30.9437 86.9658 30.9824C87.0657 31.0823 87.1732 31.0823 87.3807 31.0823L87.5959 30.9824L104.854 24.6432C104.948 24.6037 105.033 24.546 105.104 24.4734C105.175 24.4009 105.231 24.3149 105.269 24.2205C105.344 24.1397 105.39 24.0368 105.401 23.9273C105.412 23.8178 105.387 23.7077 105.33 23.6135" fill="#1395D3"/>
<path d="M147.761 4.74208C147.188 3.82345 146.316 3.12934 145.293 2.77555C144.269 2.42176 143.155 2.4297 142.137 2.79805L131.003 7.4084C130.539 7.5813 130.118 7.85374 129.771 8.20657C129.424 8.55939 129.158 8.98403 128.992 9.45061C128.827 9.91718 128.766 10.4144 128.813 10.9072C128.86 11.4 129.015 11.8764 129.266 12.3031L147.054 45.1057C147.554 46.145 147.77 47.2977 147.681 48.4472C147.592 49.5968 147.201 50.7025 146.547 51.6524C146.547 51.6524 139.101 60.1047 129.289 65.545C128.944 65.7102 128.636 65.9429 128.382 66.2292C128.129 66.5155 127.935 66.8497 127.812 67.212C127.69 67.5743 127.641 67.9575 127.669 68.339C127.697 68.7204 127.801 69.0924 127.975 69.433C128.475 70.7547 137.073 81.8041 137.073 81.8041C138.494 83.4331 139.516 84.0402 143.097 82.8261C143.097 82.8261 172.296 70.8776 196.316 8.85297C196.316 8.85297 198.368 4.95723 193.45 3.13614C190.075 1.93178 186.632 0.928551 183.138 0.131725C180.064 -0.498357 178.097 1.23821 176.991 3.08235L164.697 27.0946C163.567 28.9387 161.731 28.8312 160.624 26.9947L147.761 4.74208Z" fill="#65BC46"/>
<path d="M43.9509 9.70577C44.4473 9.64928 44.95 9.69173 45.4299 9.83066C45.9097 9.9696 46.3573 10.2023 46.7467 10.5152C47.1361 10.8282 47.4596 11.2152 47.6985 11.6539C47.9375 12.0927 48.0871 12.5744 48.1387 13.0713C48.1387 13.0713 46.9016 43.4074 53.2409 62.525C54.3704 65.7907 55.7919 66.2133 59.265 64.6842L66.6339 61.4186C69.5 60.1046 71.6285 62.0256 72.4507 64.0772C72.4507 64.0772 77.7603 74.2891 77.5528 77.4626C77.4452 79.9138 76.3156 81.0433 73.1575 82.0729C73.1575 82.0729 58.4505 87.7898 43.0135 86.5757C38.8258 86.2607 35.1452 86.4681 33.5162 79.9445C33.5162 79.9445 23.8115 47.1418 27.8839 16.1679C28.3911 12.5872 30.0431 11.9802 32.1792 11.7727L43.9509 9.70577Z" fill="#EF569F"/>
<path d="M37.1135 152.95C36.677 153.438 36.1414 153.827 35.5425 154.092C34.9436 154.357 34.2952 154.492 33.6404 154.486C32.8981 154.457 32.1679 154.288 31.4888 153.987C30.8037 153.66 30.2079 153.172 29.7523 152.565L9.70493 123.62V153.864H0.000130708V111.356C-0.00936348 109.994 0.498674 108.678 1.42164 107.676C1.8582 107.188 2.39379 106.798 2.99266 106.533C3.59152 106.268 4.23993 106.134 4.89479 106.139C5.71854 106.133 6.52382 106.383 7.19996 106.854C7.92642 107.301 8.55396 107.892 9.04412 108.59L28.7688 136.79V111.549C28.7501 110.842 28.892 110.141 29.1837 109.497C29.4659 108.884 29.8109 108.302 30.2133 107.76C30.6412 107.281 31.1647 106.896 31.7501 106.631C32.3204 106.348 32.9501 106.206 33.5865 106.216C34.2574 106.207 34.9218 106.349 35.5306 106.631C36.1003 106.922 36.6192 107.304 37.0674 107.76C37.5048 108.241 37.8534 108.795 38.097 109.397C38.3937 110.039 38.5358 110.742 38.5119 111.449V149.353C38.5068 150.688 37.9897 151.97 37.0674 152.934" fill="#004C88"/>
<path d="M67.7626 150.898C65.104 153.341 61.4233 154.578 56.7361 154.578C52.0489 154.578 48.3683 153.341 45.7097 150.898C43.051 148.454 41.7371 144.559 41.7371 139.457L43.3661 120.754L44.3958 119.117L51.2345 126.033V139.211C51.1298 140.853 51.5938 142.481 52.5484 143.821C53.0826 144.421 53.748 144.89 54.493 145.191C55.238 145.493 56.0424 145.618 56.8437 145.558C58.7877 145.558 60.1017 145.058 61.0238 143.821C61.9911 142.487 62.4588 140.855 62.3454 139.211V123.305C62.3223 122.63 62.4648 121.96 62.7604 121.353C63.0014 120.754 63.3475 120.202 63.7823 119.724C64.2113 119.273 64.7366 118.923 65.3191 118.702C65.8904 118.414 66.5233 118.269 67.1632 118.28C67.7911 118.277 68.4129 118.402 68.9913 118.647C69.5696 118.891 70.0926 119.25 70.5288 119.701C71.4503 120.664 71.9602 121.949 71.9503 123.282V139.418C71.7428 144.543 70.4135 148.408 67.7702 150.859" fill="#004C88"/>
<path d="M95.3345 125.379C94.9717 125.984 94.4878 126.508 93.9129 126.916C93.297 127.345 92.6469 127.723 91.969 128.046C91.2111 128.344 90.4873 128.723 89.8098 129.175C89.0537 129.631 88.3343 130.145 87.6582 130.712C86.9767 131.346 86.4236 132.105 86.0292 132.948C85.6204 133.705 85.3769 134.541 85.3147 135.399C85.2232 136.352 85.1873 137.309 85.2071 138.265V154.102L75.7098 154.21V123.535C75.6569 123.022 75.8087 122.508 76.1323 122.106C76.4834 121.705 76.8608 121.328 77.2619 120.977C77.4839 120.789 77.7505 120.662 78.036 120.608C78.3214 120.555 78.616 120.575 78.8909 120.669C79.4558 120.914 79.9461 121.304 80.3124 121.799C80.7758 122.413 81.1895 123.063 81.5495 123.743C81.8646 124.45 82.1565 125.28 82.4716 125.979C82.6778 125.65 82.9146 125.341 83.1785 125.057C83.6011 124.557 84.2082 123.927 84.9151 123.113C85.6853 122.344 86.504 121.625 87.3662 120.961C88.1324 120.437 88.9514 119.994 89.8098 119.64C90.5979 119.233 91.4854 119.06 92.3685 119.14C93.309 119.287 94.1712 119.75 94.812 120.454C95.491 121.214 95.8586 122.202 95.8416 123.22C95.901 123.591 95.8868 123.97 95.7998 124.335C95.7128 124.7 95.5546 125.045 95.3345 125.349" fill="#004C88"/>
<path d="M123.749 148.347C122.939 149.706 121.862 150.887 120.583 151.82C119.257 152.761 117.77 153.453 116.196 153.864C114.658 154.268 113.075 154.472 111.486 154.471C109.128 154.446 106.791 154.031 104.57 153.241C102.336 152.483 100.233 151.382 98.3384 149.975L101.097 142.714C101.842 143.168 102.612 143.581 103.402 143.951C104.324 144.366 105.246 144.766 106.168 145.188C107.054 145.587 107.978 145.893 108.927 146.103C109.727 146.3 110.547 146.406 111.37 146.418C111.856 146.445 112.342 146.375 112.8 146.21C113.255 146.095 113.696 145.927 114.113 145.711C114.508 145.424 114.856 145.076 115.143 144.681C115.431 144.264 115.576 143.766 115.558 143.26C115.565 142.823 115.454 142.392 115.236 142.013C115.018 141.635 114.702 141.322 114.321 141.108C113.342 140.509 112.314 139.995 111.247 139.571C110.01 139.149 108.696 138.649 107.275 138.15C105.874 137.671 104.54 137.018 103.302 136.206C102.09 135.388 101.047 134.344 100.229 133.132C99.3683 131.753 98.94 130.147 98.9992 128.522C98.971 126.871 99.3963 125.245 100.229 123.819C101.005 122.494 102.088 121.374 103.387 120.554C104.647 119.647 106.068 118.987 107.574 118.61C109.039 118.208 110.551 118.004 112.07 118.003C113.165 118.024 114.256 118.129 115.335 118.318C116.683 118.56 118.011 118.901 119.308 119.34C120.541 119.777 121.684 120.436 122.681 121.284C123.129 121.661 123.488 122.131 123.733 122.662C123.979 123.194 124.105 123.772 124.103 124.357C124.12 124.846 124.037 125.333 123.86 125.789C123.683 126.244 123.415 126.659 123.073 127.008C122.764 127.353 122.388 127.631 121.968 127.825C121.547 128.019 121.092 128.126 120.629 128.138C119.959 128.142 119.296 128.001 118.685 127.723C118.078 127.408 117.364 127.223 116.526 126.801C115.819 126.486 114.989 126.194 114.221 125.879C113.405 125.58 112.539 125.439 111.67 125.464C111.251 125.481 110.835 125.551 110.433 125.671C110.036 125.786 109.656 125.954 109.303 126.171C108.986 126.395 108.71 126.673 108.489 126.993C108.262 127.362 108.152 127.79 108.174 128.222C108.19 128.6 108.316 128.965 108.536 129.274C108.755 129.582 109.059 129.82 109.411 129.959C110.396 130.515 111.423 130.99 112.485 131.38C113.722 131.888 115.143 132.41 116.565 133.017C117.992 133.6 119.358 134.32 120.645 135.169C121.866 136.054 122.909 137.162 123.718 138.434C124.579 139.848 125.009 141.482 124.955 143.137C125.096 144.946 124.689 146.756 123.788 148.331" fill="#004C88"/>
<path d="M150.711 133.425C150.686 132.485 150.518 131.555 150.212 130.666C149.95 129.814 149.53 129.019 148.975 128.323C148.467 127.64 147.843 127.052 147.131 126.586C146.347 126.166 145.468 125.957 144.58 125.979C143.656 125.954 142.742 126.163 141.921 126.586C141.195 127.029 140.54 127.578 139.977 128.215C139.473 128.943 139.06 129.73 138.747 130.559C138.443 131.455 138.239 132.383 138.14 133.325H150.711V133.425V133.425ZM159.31 138.342C158.322 138.921 157.188 139.204 156.044 139.157H138.079C138.406 141.167 139.462 142.986 141.045 144.267C142.541 145.549 144.454 146.24 146.424 146.211C147.555 146.209 148.684 146.103 149.797 145.896C150.926 145.688 152.033 145.396 153.162 145.189L154.484 152.873C153.099 153.453 151.66 153.895 150.189 154.194C148.71 154.494 147.203 154.633 145.694 154.609C143.322 154.645 140.969 154.195 138.778 153.288C136.688 152.426 134.78 151.177 133.154 149.607C131.516 147.981 130.227 146.039 129.365 143.898C128.439 141.527 127.989 138.997 128.044 136.452C128.024 134.045 128.443 131.655 129.281 129.398C130.092 127.305 131.268 125.372 132.754 123.689C134.276 122.082 136.078 120.764 138.071 119.801C140.155 118.859 142.416 118.371 144.702 118.372C146.784 118.356 148.843 118.808 150.727 119.693C152.613 120.587 154.309 121.837 155.721 123.374C157.171 124.938 158.345 126.736 159.194 128.691C160.094 130.717 160.545 132.914 160.516 135.13C160.408 136.744 160.116 137.851 159.302 138.373" fill="#004C88"/>
<path d="M183.014 125.379C182.649 125.983 182.166 126.505 181.593 126.916C180.981 127.356 180.327 127.734 179.641 128.046C178.886 128.345 178.164 128.723 177.489 129.175C176.748 129.606 176.06 130.122 175.438 130.712C174.759 131.348 174.206 132.107 173.809 132.948C173.4 133.705 173.157 134.541 173.094 135.399C173.009 136.352 172.976 137.309 172.994 138.265V154.102L163.497 154.21V123.535C163.441 123.023 163.59 122.509 163.912 122.106C164.265 121.707 164.642 121.33 165.042 120.977C165.263 120.789 165.53 120.662 165.816 120.608C166.101 120.555 166.396 120.575 166.671 120.669C167.235 120.914 167.726 121.304 168.092 121.799C168.555 122.413 168.969 123.063 169.329 123.743C169.682 124.468 169.99 125.215 170.251 125.979C170.457 125.65 170.694 125.341 170.958 125.057C171.381 124.557 171.988 123.927 172.695 123.113C173.465 122.344 174.284 121.625 175.146 120.961C175.915 120.437 176.736 119.994 177.597 119.64C178.382 119.232 179.267 119.058 180.148 119.14C181.089 119.285 181.952 119.749 182.592 120.454C183.271 121.214 183.638 122.202 183.621 123.22C183.582 123.966 183.374 124.694 183.014 125.349" fill="#004C88"/>
<path d="M194.748 107.176C195.082 107.511 195.345 107.909 195.522 108.347C195.698 108.785 195.786 109.255 195.778 109.727C195.795 110.216 195.713 110.703 195.536 111.158C195.359 111.614 195.091 112.029 194.748 112.378C194.439 112.722 194.062 112.999 193.642 113.193C193.222 113.388 192.767 113.494 192.305 113.508C191.841 113.495 191.385 113.388 190.964 113.194C190.542 113 190.165 112.722 189.854 112.378C189.512 112.029 189.245 111.614 189.07 111.158C188.894 110.702 188.813 110.215 188.832 109.727C188.812 109.254 188.894 108.782 189.07 108.342C189.246 107.903 189.513 107.505 189.854 107.176C190.158 106.824 190.534 106.54 190.957 106.346C191.38 106.151 191.839 106.049 192.305 106.047C192.767 106.06 193.222 106.167 193.642 106.361C194.062 106.555 194.439 106.832 194.748 107.176V107.176ZM187.702 153.864V123.22C187.687 122.558 187.805 121.901 188.05 121.285C188.294 120.67 188.659 120.111 189.124 119.639C189.558 119.186 190.081 118.825 190.66 118.581C191.238 118.337 191.861 118.213 192.489 118.218C193.129 118.207 193.762 118.352 194.333 118.64C194.876 118.921 195.359 119.304 195.755 119.77C196.191 120.247 196.538 120.799 196.777 121.399C197.026 122.019 197.169 122.676 197.2 123.343V153.994H187.702V153.864Z" fill="#004C88"/>
<path d="M224.27 133.425C224.247 132.484 224.075 131.553 223.763 130.666C223.507 129.814 223.089 129.018 222.534 128.323C222.024 127.641 221.4 127.054 220.69 126.586C219.911 126.155 219.028 125.945 218.139 125.979C217.215 125.954 216.301 126.163 215.48 126.586C214.754 127.029 214.099 127.578 213.536 128.215C213.032 128.944 212.617 129.731 212.299 130.559C212.002 131.457 211.798 132.384 211.692 133.325H224.27V133.425V133.425ZM232.968 138.342C231.989 138.936 230.854 139.22 229.711 139.157H211.738C212.064 141.169 213.123 142.989 214.711 144.267C216.216 145.559 218.145 146.251 220.129 146.211C221.258 146.209 222.384 146.103 223.494 145.896C224.624 145.688 225.73 145.396 226.86 145.189L228.181 152.873C226.799 153.452 225.363 153.895 223.894 154.194C222.412 154.495 220.902 154.634 219.391 154.609C217.02 154.645 214.666 154.195 212.475 153.288C210.399 152.4 208.496 151.154 206.851 149.607C205.216 147.979 203.927 146.037 203.063 143.898C202.139 141.527 201.692 138.996 201.749 136.452C201.726 134.046 202.143 131.655 202.978 129.398C203.792 127.306 204.968 125.374 206.451 123.689C207.973 122.082 209.775 120.764 211.769 119.801C213.849 118.848 216.112 118.361 218.4 118.372C220.481 118.356 222.54 118.808 224.424 119.693C226.313 120.587 228.011 121.837 229.426 123.374C230.871 124.942 232.045 126.739 232.899 128.691C233.745 130.734 234.191 132.92 234.213 135.13C234.113 136.744 233.821 137.851 232.999 138.373" fill="#004C88"/>
<path d="M262.804 148.347C261.997 149.705 260.922 150.887 259.646 151.82C258.343 152.738 256.893 153.429 255.359 153.864C253.821 154.267 252.238 154.471 250.648 154.471C248.291 154.446 245.954 154.031 243.733 153.241C241.475 152.46 239.34 151.361 237.394 149.975L240.152 142.714C240.886 143.188 241.657 143.602 242.457 143.951C243.379 144.366 244.301 144.766 245.223 145.188C246.11 145.586 247.034 145.892 247.982 146.103C248.817 146.307 249.673 146.413 250.533 146.418C251.016 146.446 251.5 146.375 251.955 146.21C252.413 146.096 252.857 145.928 253.276 145.711C253.669 145.424 254.014 145.076 254.298 144.681C254.592 144.267 254.74 143.767 254.721 143.26C254.726 142.823 254.614 142.393 254.397 142.015C254.179 141.636 253.864 141.323 253.484 141.108C252.505 140.509 251.477 139.995 250.41 139.571C249.173 139.149 247.859 138.649 246.438 138.15C245.035 137.669 243.698 137.016 242.457 136.206C241.247 135.386 240.204 134.343 239.384 133.132C238.523 131.753 238.095 130.147 238.154 128.522C238.126 126.871 238.551 125.245 239.384 123.819C240.16 122.494 241.243 121.374 242.542 120.554C243.802 119.647 245.223 118.987 246.729 118.61C248.194 118.208 249.706 118.004 251.225 118.003C252.32 118.024 253.411 118.129 254.49 118.318C255.838 118.561 257.165 118.902 258.463 119.34C259.696 119.777 260.839 120.436 261.836 121.284C262.284 121.661 262.643 122.131 262.889 122.662C263.134 123.194 263.26 123.772 263.258 124.357C263.275 124.846 263.192 125.333 263.015 125.789C262.838 126.244 262.57 126.659 262.228 127.008C261.919 127.353 261.543 127.631 261.123 127.825C260.703 128.019 260.247 128.126 259.785 128.138C259.114 128.142 258.451 128.001 257.84 127.723C257.233 127.408 256.519 127.223 255.789 126.801C255.059 126.378 254.252 126.194 253.484 125.879C252.665 125.588 251.801 125.447 250.933 125.464C250.513 125.48 250.097 125.549 249.696 125.671C249.298 125.786 248.918 125.954 248.566 126.171C248.245 126.391 247.968 126.67 247.751 126.993C247.525 127.362 247.415 127.79 247.436 128.222C247.445 128.606 247.567 128.979 247.787 129.293C248.008 129.608 248.316 129.85 248.674 129.99C249.657 130.547 250.685 131.022 251.747 131.411C252.977 131.918 254.406 132.441 255.827 133.048C257.254 133.63 258.621 134.351 259.907 135.199C261.127 136.087 262.169 137.194 262.981 138.465C263.831 139.883 264.26 141.514 264.218 143.168C264.184 144.985 263.71 146.768 262.835 148.362" fill="#004C88"/>
<path d="M41.6163 139.264V123.32C41.5941 122.648 41.7365 121.981 42.0311 121.376C42.2703 120.776 42.6166 120.224 43.0531 119.747C43.4817 119.293 44.007 118.941 44.5899 118.717C45.163 118.435 45.7952 118.292 46.4341 118.302C47.0623 118.298 47.6849 118.421 48.2636 118.666C48.8424 118.91 49.3651 119.27 49.7997 119.724C50.7211 120.687 51.231 121.972 51.2212 123.305V139.441" fill="#004C88"/>
</svg>
